<?xml version="1.0" ?><!DOCTYPE svg  PUBLIC '-//W3C//DTD SVG 1.1//EN'  'http://www.w3.org/Graphics/SVG/1.1/DTD/svg11.dtd'><svg height="100%" style="fill-rule:evenodd;clip-rule:evenodd;stroke-linejoin:round;stroke-miterlimit:2;" version="1.1" viewBox="0 0 32 32" width="100%" xml:space="preserve" xmlns="http://www.w3.org/2000/svg" xmlns:serif="http://www.serif.com/" xmlns:xlink="http://www.w3.org/1999/xlink"><path d="M15.003,23.063l-2.994,-0c-0.795,-0 -1.558,0.316 -2.121,0.878c-0.563,0.563 -0.879,1.326 -0.879,2.122c0,0.638 0,1.345 0,1.984c0,0.796 0.316,1.559 0.879,2.121c0.563,0.563 1.326,0.879 2.121,0.879l7.993,0c0.796,0 1.559,-0.316 2.122,-0.879c0.562,-0.562 0.878,-1.325 0.878,-2.121l0,-1.984c0,-0.796 -0.316,-1.559 -0.878,-2.122c-0.563,-0.562 -1.326,-0.878 -2.122,-0.878l-2.999,-0l-0.03,-21.081c-0.001,-0.551 -0.45,-0.999 -1.002,-0.998c-0.551,0.001 -0.999,0.449 -0.998,1.001l0.03,21.078Z"/><path d="M18.974,2.988l0.018,12.012l9.008,-0c0.384,0 0.735,-0.22 0.901,-0.567c0.167,-0.346 0.12,-0.757 -0.12,-1.057l-3.501,-4.382c0,-0 3.501,-4.382 3.501,-4.382c0.24,-0.3 0.287,-0.712 0.12,-1.058c-0.166,-0.346 -0.517,-0.566 -0.901,-0.566l-9.026,-0Z"/>
</svg>